<svg width="20" height="21" viewBox="0 0 15 16" fill="none" xmlns="http://www.w3.org/2000/svg">
<path d="M7.49988 2.98975L7.35316 3.121L2.00613 8.52709L1.68457 8.84959L2.0066 9.18709L6.45973 13.6402L6.79723 13.9622L7.12066 13.6402L12.5254 8.29318L12.6561 8.146V2.98975H7.49988ZM7.89551 3.92725H11.7186V7.75037L6.79676 12.6432L3.0027 8.84912L7.89551 3.92725ZM10.3124 4.86475C10.1881 4.86475 10.0688 4.91413 9.98093 5.00204C9.89302 5.08995 9.84363 5.20918 9.84363 5.3335C9.84363 5.45782 9.89302 5.57704 9.98093 5.66495C10.0688 5.75286 10.1881 5.80225 10.3124 5.80225C10.4367 5.80225 10.5559 5.75286 10.6438 5.66495C10.7317 5.57704 10.7811 5.45782 10.7811 5.3335C10.7811 5.20918 10.7317 5.08995 10.6438 5.00204C10.5559 4.91413 10.4367 4.86475 10.3124 4.86475Z" fill="#626262"/>
</svg>
