<svg
    width="29"
    height="25"
    viewBox="0 0 29 29"
    fill="none"
    xmlns="http://www.w3.org/2000/svg"
    >
    <g clip-path="url(#clip0_1733_107)">
        <path
        d="M2.84033 23.4376C2.84033 24.7267 3.89503 25.7814 5.1841 25.7814H23.9342C25.2233 25.7814 26.278 24.7267 26.278 23.4376V8.20316H20.8926C20.3395 5.20783 17.7127 2.92969 14.5592 2.92969C11.4056 2.92969 8.77884 5.20783 8.22572 8.20316H2.84033V23.4376ZM14.5592 4.10157C17.0641 4.10157 19.1617 5.85822 19.6967 8.20316H9.42162C9.95659 5.85822 12.0543 4.10157 14.5592 4.10157ZM8.1138 9.37504V12.8907H9.28568V9.37504H19.8326V12.8907H21.0045V9.37504H25.1061V23.4376C25.1061 24.0839 24.5805 24.6095 23.9342 24.6095H5.1841C4.5378 24.6095 4.01221 24.0839 4.01221 23.4376V9.37504H8.1138Z"
        fill="#414141"
        />
    </g>
    <defs>
        <clipPath id="clip0_1733_107">
        <rect
            width="28.1252"
            height="28.1252"
            fill="white"
            transform="translate(0.496582)"
        />
        </clipPath>
    </defs>
</svg>